<mxfile host="65bd71144e">
    <diagram name="Page-1" id="e56a1550-8fbb-45ad-956c-1786394a9013">
        <mxGraphModel dx="832" dy="524" grid="1" gridSize="10" guides="1" tooltips="1" connect="1" arrows="1" fold="1" page="1" pageScale="1" pageWidth="1169" pageHeight="827" background="none" math="0" shadow="0">
            <root>
                <mxCell id="0"/>
                <mxCell id="1" parent="0"/>
                <mxCell id="2e49270ec7c68f3f-1" value="Table" style="swimlane;html=1;fontStyle=0;childLayout=stackLayout;horizontal=1;startSize=26;fillColor=#e0e0e0;horizontalStack=0;resizeParent=1;resizeLast=0;collapsible=1;marginBottom=0;swimlaneFillColor=#ffffff;align=center;rounded=0;shadow=0;comic=0;labelBackgroundColor=none;strokeWidth=1;fontFamily=Verdana;fontSize=14" parent="1" vertex="1">
                    <mxGeometry x="290" y="140" width="160" height="112" as="geometry"/>
                </mxCell>
                <mxCell id="2e49270ec7c68f3f-2" value="row 1" style="shape=partialRectangle;top=0;left=0;right=0;bottom=0;html=1;align=left;verticalAlign=middle;fillColor=none;spacingLeft=60;spacingRight=4;whiteSpace=wrap;overflow=hidden;rotatable=0;points=[[0,0.5],[1,0.5]];portConstraint=eastwest;dropTarget=0;fontStyle=5;" parent="2e49270ec7c68f3f-1" vertex="1">
                    <mxGeometry y="26" width="160" height="30" as="geometry"/>
                </mxCell>
                <mxCell id="2e49270ec7c68f3f-4" value="row 2" style="shape=partialRectangle;top=0;left=0;right=0;bottom=1;html=1;align=left;verticalAlign=middle;fillColor=none;spacingLeft=60;spacingRight=4;whiteSpace=wrap;overflow=hidden;rotatable=0;points=[[0,0.5],[1,0.5]];portConstraint=eastwest;dropTarget=0;fontStyle=5;" parent="2e49270ec7c68f3f-1" vertex="1">
                    <mxGeometry y="56" width="160" height="30" as="geometry"/>
                </mxCell>
                <mxCell id="2e49270ec7c68f3f-6" value="row 1" style="shape=partialRectangle;top=0;left=0;right=0;bottom=0;html=1;align=left;verticalAlign=top;fillColor=none;spacingLeft=60;spacingRight=4;whiteSpace=wrap;overflow=hidden;rotatable=0;points=[[0,0.5],[1,0.5]];portConstraint=eastwest;dropTarget=0;" parent="2e49270ec7c68f3f-1" vertex="1">
                    <mxGeometry y="86" width="160" height="26" as="geometry"/>
                </mxCell>
                <mxCell id="2e49270ec7c68f3f-8" value="CAr" style="swimlane;html=1;fontStyle=0;childLayout=stackLayout;horizontal=1;startSize=26;fillColor=#e0e0e0;horizontalStack=0;resizeParent=1;resizeLast=0;collapsible=1;marginBottom=0;swimlaneFillColor=#ffffff;align=center;rounded=0;shadow=0;comic=0;labelBackgroundColor=none;strokeWidth=1;fontFamily=Verdana;fontSize=14;swimlaneLine=1;" parent="1" vertex="1">
                    <mxGeometry x="570" y="154" width="160" height="144" as="geometry">
                        <mxRectangle x="570" y="154" width="70" height="26" as="alternateBounds"/>
                    </mxGeometry>
                </mxCell>
                <mxCell id="2e49270ec7c68f3f-9" value="CAR i d" style="shape=partialRectangle;top=0;left=0;right=0;bottom=1;html=1;align=left;verticalAlign=middle;fillColor=none;spacingLeft=34;spacingRight=4;whiteSpace=wrap;overflow=hidden;rotatable=0;points=[[0,0.5],[1,0.5]];portConstraint=eastwest;dropTarget=0;fontStyle=5;" parent="2e49270ec7c68f3f-8" vertex="1">
                    <mxGeometry y="26" width="160" height="30" as="geometry"/>
                </mxCell>
                <mxCell id="2e49270ec7c68f3f-10" value="PK" style="shape=partialRectangle;top=0;left=0;bottom=0;html=1;fillColor=none;align=left;verticalAlign=middle;spacingLeft=4;spacingRight=4;whiteSpace=wrap;overflow=hidden;rotatable=0;points=[];portConstraint=eastwest;part=1;" parent="2e49270ec7c68f3f-9" vertex="1" connectable="0">
                    <mxGeometry width="30" height="30" as="geometry"/>
                </mxCell>
                <mxCell id="2e49270ec7c68f3f-11" value="&amp;nbsp;name -&amp;nbsp;" style="shape=partialRectangle;top=0;left=0;right=0;bottom=0;html=1;align=left;verticalAlign=top;fillColor=none;spacingLeft=34;spacingRight=4;whiteSpace=wrap;overflow=hidden;rotatable=0;points=[[0,0.5],[1,0.5]];portConstraint=eastwest;dropTarget=0;" parent="2e49270ec7c68f3f-8" vertex="1">
                    <mxGeometry y="56" width="160" height="26" as="geometry"/>
                </mxCell>
                <mxCell id="2e49270ec7c68f3f-12" value="FK" style="shape=partialRectangle;top=0;left=0;bottom=0;html=1;fillColor=none;align=left;verticalAlign=top;spacingLeft=4;spacingRight=4;whiteSpace=wrap;overflow=hidden;rotatable=0;points=[];portConstraint=eastwest;part=1;" parent="2e49270ec7c68f3f-11" vertex="1" connectable="0">
                    <mxGeometry width="30" height="26" as="geometry"/>
                </mxCell>
                <mxCell id="2e49270ec7c68f3f-13" value="row 2" style="shape=partialRectangle;top=0;left=0;right=0;bottom=0;html=1;align=left;verticalAlign=top;fillColor=none;spacingLeft=34;spacingRight=4;whiteSpace=wrap;overflow=hidden;rotatable=0;points=[[0,0.5],[1,0.5]];portConstraint=eastwest;dropTarget=0;" parent="2e49270ec7c68f3f-8" vertex="1">
                    <mxGeometry y="82" width="160" height="26" as="geometry"/>
                </mxCell>
                <mxCell id="2e49270ec7c68f3f-14" value="" style="shape=partialRectangle;top=0;left=0;bottom=0;html=1;fillColor=none;align=left;verticalAlign=top;spacingLeft=4;spacingRight=4;whiteSpace=wrap;overflow=hidden;rotatable=0;points=[];portConstraint=eastwest;part=1;" parent="2e49270ec7c68f3f-13" vertex="1" connectable="0">
                    <mxGeometry width="30" height="26" as="geometry"/>
                </mxCell>
                <mxCell id="2e49270ec7c68f3f-15" value="row 3" style="shape=partialRectangle;top=0;left=0;right=0;bottom=0;html=1;align=left;verticalAlign=top;fillColor=none;spacingLeft=34;spacingRight=4;whiteSpace=wrap;overflow=hidden;rotatable=0;points=[[0,0.5],[1,0.5]];portConstraint=eastwest;dropTarget=0;" parent="2e49270ec7c68f3f-8" vertex="1">
                    <mxGeometry y="108" width="160" height="26" as="geometry"/>
                </mxCell>
                <mxCell id="2e49270ec7c68f3f-16" value="" style="shape=partialRectangle;top=0;left=0;bottom=0;html=1;fillColor=none;align=left;verticalAlign=top;spacingLeft=4;spacingRight=4;whiteSpace=wrap;overflow=hidden;rotatable=0;points=[];portConstraint=eastwest;part=1;" parent="2e49270ec7c68f3f-15" vertex="1" connectable="0">
                    <mxGeometry width="30" height="26" as="geometry"/>
                </mxCell>
                <mxCell id="2e49270ec7c68f3f-17" value="" style="shape=partialRectangle;top=0;left=0;right=0;bottom=0;html=1;align=left;verticalAlign=top;fillColor=none;spacingLeft=34;spacingRight=4;whiteSpace=wrap;overflow=hidden;rotatable=0;points=[[0,0.5],[1,0.5]];portConstraint=eastwest;dropTarget=0;" parent="2e49270ec7c68f3f-8" vertex="1">
                    <mxGeometry y="134" width="160" height="10" as="geometry"/>
                </mxCell>
                <mxCell id="2e49270ec7c68f3f-18" value="" style="shape=partialRectangle;top=0;left=0;bottom=0;html=1;fillColor=none;align=left;verticalAlign=top;spacingLeft=4;spacingRight=4;whiteSpace=wrap;overflow=hidden;rotatable=0;points=[];portConstraint=eastwest;part=1;" parent="2e49270ec7c68f3f-17" vertex="1" connectable="0">
                    <mxGeometry width="30" height="10" as="geometry"/>
                </mxCell>
                <mxCell id="2e49270ec7c68f3f-30" value="Table" style="swimlane;html=1;fontStyle=0;childLayout=stackLayout;horizontal=1;startSize=26;fillColor=#e0e0e0;horizontalStack=0;resizeParent=1;resizeLast=0;collapsible=1;marginBottom=0;swimlaneFillColor=#ffffff;align=center;rounded=0;shadow=0;comic=0;labelBackgroundColor=none;strokeWidth=1;fontFamily=Verdana;fontSize=14" parent="1" vertex="1">
                    <mxGeometry x="580" y="409" width="160" height="144" as="geometry"/>
                </mxCell>
                <mxCell id="2e49270ec7c68f3f-31" value="uniqueId" style="shape=partialRectangle;top=0;left=0;right=0;bottom=1;html=1;align=left;verticalAlign=middle;fillColor=none;spacingLeft=34;spacingRight=4;whiteSpace=wrap;overflow=hidden;rotatable=0;points=[[0,0.5],[1,0.5]];portConstraint=eastwest;dropTarget=0;fontStyle=5;" parent="2e49270ec7c68f3f-30" vertex="1">
                    <mxGeometry y="26" width="160" height="30" as="geometry"/>
                </mxCell>
                <mxCell id="2e49270ec7c68f3f-32" value="PK" style="shape=partialRectangle;top=0;left=0;bottom=0;html=1;fillColor=none;align=left;verticalAlign=middle;spacingLeft=4;spacingRight=4;whiteSpace=wrap;overflow=hidden;rotatable=0;points=[];portConstraint=eastwest;part=1;" parent="2e49270ec7c68f3f-31" vertex="1" connectable="0">
                    <mxGeometry width="30" height="30" as="geometry"/>
                </mxCell>
                <mxCell id="2e49270ec7c68f3f-33" value="row 1" style="shape=partialRectangle;top=0;left=0;right=0;bottom=0;html=1;align=left;verticalAlign=top;fillColor=none;spacingLeft=34;spacingRight=4;whiteSpace=wrap;overflow=hidden;rotatable=0;points=[[0,0.5],[1,0.5]];portConstraint=eastwest;dropTarget=0;" parent="2e49270ec7c68f3f-30" vertex="1">
                    <mxGeometry y="56" width="160" height="26" as="geometry"/>
                </mxCell>
                <mxCell id="2e49270ec7c68f3f-34" value="" style="shape=partialRectangle;top=0;left=0;bottom=0;html=1;fillColor=none;align=left;verticalAlign=top;spacingLeft=4;spacingRight=4;whiteSpace=wrap;overflow=hidden;rotatable=0;points=[];portConstraint=eastwest;part=1;" parent="2e49270ec7c68f3f-33" vertex="1" connectable="0">
                    <mxGeometry width="30" height="26" as="geometry"/>
                </mxCell>
                <mxCell id="2e49270ec7c68f3f-35" value="row 2" style="shape=partialRectangle;top=0;left=0;right=0;bottom=0;html=1;align=left;verticalAlign=top;fillColor=none;spacingLeft=34;spacingRight=4;whiteSpace=wrap;overflow=hidden;rotatable=0;points=[[0,0.5],[1,0.5]];portConstraint=eastwest;dropTarget=0;" parent="2e49270ec7c68f3f-30" vertex="1">
                    <mxGeometry y="82" width="160" height="26" as="geometry"/>
                </mxCell>
                <mxCell id="2e49270ec7c68f3f-36" value="" style="shape=partialRectangle;top=0;left=0;bottom=0;html=1;fillColor=none;align=left;verticalAlign=top;spacingLeft=4;spacingRight=4;whiteSpace=wrap;overflow=hidden;rotatable=0;points=[];portConstraint=eastwest;part=1;" parent="2e49270ec7c68f3f-35" vertex="1" connectable="0">
                    <mxGeometry width="30" height="26" as="geometry"/>
                </mxCell>
                <mxCell id="2e49270ec7c68f3f-37" value="row 3" style="shape=partialRectangle;top=0;left=0;right=0;bottom=0;html=1;align=left;verticalAlign=top;fillColor=none;spacingLeft=34;spacingRight=4;whiteSpace=wrap;overflow=hidden;rotatable=0;points=[[0,0.5],[1,0.5]];portConstraint=eastwest;dropTarget=0;" parent="2e49270ec7c68f3f-30" vertex="1">
                    <mxGeometry y="108" width="160" height="26" as="geometry"/>
                </mxCell>
                <mxCell id="2e49270ec7c68f3f-38" value="" style="shape=partialRectangle;top=0;left=0;bottom=0;html=1;fillColor=none;align=left;verticalAlign=top;spacingLeft=4;spacingRight=4;whiteSpace=wrap;overflow=hidden;rotatable=0;points=[];portConstraint=eastwest;part=1;" parent="2e49270ec7c68f3f-37" vertex="1" connectable="0">
                    <mxGeometry width="30" height="26" as="geometry"/>
                </mxCell>
                <mxCell id="2e49270ec7c68f3f-39" value="" style="shape=partialRectangle;top=0;left=0;right=0;bottom=0;html=1;align=left;verticalAlign=top;fillColor=none;spacingLeft=34;spacingRight=4;whiteSpace=wrap;overflow=hidden;rotatable=0;points=[[0,0.5],[1,0.5]];portConstraint=eastwest;dropTarget=0;" parent="2e49270ec7c68f3f-30" vertex="1">
                    <mxGeometry y="134" width="160" height="10" as="geometry"/>
                </mxCell>
                <mxCell id="2e49270ec7c68f3f-40" value="" style="shape=partialRectangle;top=0;left=0;bottom=0;html=1;fillColor=none;align=left;verticalAlign=top;spacingLeft=4;spacingRight=4;whiteSpace=wrap;overflow=hidden;rotatable=0;points=[];portConstraint=eastwest;part=1;" parent="2e49270ec7c68f3f-39" vertex="1" connectable="0">
                    <mxGeometry width="30" height="10" as="geometry"/>
                </mxCell>
                <mxCell id="2e49270ec7c68f3f-41" value="Table" style="swimlane;html=1;fontStyle=0;childLayout=stackLayout;horizontal=1;startSize=26;fillColor=#e0e0e0;horizontalStack=0;resizeParent=1;resizeLast=0;collapsible=1;marginBottom=0;swimlaneFillColor=#ffffff;align=center;rounded=0;shadow=0;comic=0;labelBackgroundColor=none;strokeWidth=1;fontFamily=Verdana;fontSize=14" parent="1" vertex="1">
                    <mxGeometry x="890" y="274" width="160" height="112" as="geometry"/>
                </mxCell>
                <mxCell id="2e49270ec7c68f3f-42" value="row 1" style="shape=partialRectangle;top=0;left=0;right=0;bottom=0;html=1;align=left;verticalAlign=middle;fillColor=none;spacingLeft=60;spacingRight=4;whiteSpace=wrap;overflow=hidden;rotatable=0;points=[[0,0.5],[1,0.5]];portConstraint=eastwest;dropTarget=0;fontStyle=5;" parent="2e49270ec7c68f3f-41" vertex="1">
                    <mxGeometry y="26" width="160" height="30" as="geometry"/>
                </mxCell>
                <mxCell id="2e49270ec7c68f3f-43" value="PK,FK1" style="shape=partialRectangle;fontStyle=1;top=0;left=0;bottom=0;html=1;fillColor=none;align=left;verticalAlign=middle;spacingLeft=4;spacingRight=4;whiteSpace=wrap;overflow=hidden;rotatable=0;points=[];portConstraint=eastwest;part=1;" parent="2e49270ec7c68f3f-42" vertex="1" connectable="0">
                    <mxGeometry width="56" height="30" as="geometry"/>
                </mxCell>
                <mxCell id="2e49270ec7c68f3f-44" value="row 2" style="shape=partialRectangle;top=0;left=0;right=0;bottom=1;html=1;align=left;verticalAlign=middle;fillColor=none;spacingLeft=60;spacingRight=4;whiteSpace=wrap;overflow=hidden;rotatable=0;points=[[0,0.5],[1,0.5]];portConstraint=eastwest;dropTarget=0;fontStyle=5;" parent="2e49270ec7c68f3f-41" vertex="1">
                    <mxGeometry y="56" width="160" height="30" as="geometry"/>
                </mxCell>
                <mxCell id="2e49270ec7c68f3f-45" value="PK,FK2" style="shape=partialRectangle;fontStyle=1;top=0;left=0;bottom=0;html=1;fillColor=none;align=left;verticalAlign=middle;spacingLeft=4;spacingRight=4;whiteSpace=wrap;overflow=hidden;rotatable=0;points=[];portConstraint=eastwest;part=1;" parent="2e49270ec7c68f3f-44" vertex="1" connectable="0">
                    <mxGeometry width="56" height="30" as="geometry"/>
                </mxCell>
                <mxCell id="2e49270ec7c68f3f-46" value="row 1" style="shape=partialRectangle;top=0;left=0;right=0;bottom=0;html=1;align=left;verticalAlign=top;fillColor=none;spacingLeft=60;spacingRight=4;whiteSpace=wrap;overflow=hidden;rotatable=0;points=[[0,0.5],[1,0.5]];portConstraint=eastwest;dropTarget=0;" parent="2e49270ec7c68f3f-41" vertex="1">
                    <mxGeometry y="86" width="160" height="26" as="geometry"/>
                </mxCell>
                <mxCell id="2e49270ec7c68f3f-47" value="" style="shape=partialRectangle;top=0;left=0;bottom=0;html=1;fillColor=none;align=left;verticalAlign=top;spacingLeft=4;spacingRight=4;whiteSpace=wrap;overflow=hidden;rotatable=0;points=[];portConstraint=eastwest;part=1;" parent="2e49270ec7c68f3f-46" vertex="1" connectable="0">
                    <mxGeometry width="56" height="26" as="geometry"/>
                </mxCell>
                <mxCell id="2e49270ec7c68f3f-48" value="Table" style="swimlane;html=1;fontStyle=0;childLayout=stackLayout;horizontal=1;startSize=26;fillColor=#e0e0e0;horizontalStack=0;resizeParent=1;resizeLast=0;collapsible=1;marginBottom=0;swimlaneFillColor=#ffffff;align=center;rounded=0;shadow=0;comic=0;labelBackgroundColor=none;strokeWidth=1;fontFamily=Verdana;fontSize=14" parent="1" vertex="1">
                    <mxGeometry x="290" y="580" width="160" height="112" as="geometry"/>
                </mxCell>
                <mxCell id="2e49270ec7c68f3f-49" value="row 1" style="shape=partialRectangle;top=0;left=0;right=0;bottom=0;html=1;align=left;verticalAlign=middle;fillColor=none;spacingLeft=60;spacingRight=4;whiteSpace=wrap;overflow=hidden;rotatable=0;points=[[0,0.5],[1,0.5]];portConstraint=eastwest;dropTarget=0;fontStyle=5;" parent="2e49270ec7c68f3f-48" vertex="1">
                    <mxGeometry y="26" width="160" height="30" as="geometry"/>
                </mxCell>
                <mxCell id="2e49270ec7c68f3f-50" value="PK,FK1" style="shape=partialRectangle;fontStyle=1;top=0;left=0;bottom=0;html=1;fillColor=none;align=left;verticalAlign=middle;spacingLeft=4;spacingRight=4;whiteSpace=wrap;overflow=hidden;rotatable=0;points=[];portConstraint=eastwest;part=1;" parent="2e49270ec7c68f3f-49" vertex="1" connectable="0">
                    <mxGeometry width="56" height="30" as="geometry"/>
                </mxCell>
                <mxCell id="2e49270ec7c68f3f-51" value="row 2" style="shape=partialRectangle;top=0;left=0;right=0;bottom=1;html=1;align=left;verticalAlign=middle;fillColor=none;spacingLeft=60;spacingRight=4;whiteSpace=wrap;overflow=hidden;rotatable=0;points=[[0,0.5],[1,0.5]];portConstraint=eastwest;dropTarget=0;fontStyle=5;" parent="2e49270ec7c68f3f-48" vertex="1">
                    <mxGeometry y="56" width="160" height="30" as="geometry"/>
                </mxCell>
                <mxCell id="2e49270ec7c68f3f-52" value="PK,FK2" style="shape=partialRectangle;fontStyle=1;top=0;left=0;bottom=0;html=1;fillColor=none;align=left;verticalAlign=middle;spacingLeft=4;spacingRight=4;whiteSpace=wrap;overflow=hidden;rotatable=0;points=[];portConstraint=eastwest;part=1;" parent="2e49270ec7c68f3f-51" vertex="1" connectable="0">
                    <mxGeometry width="56" height="30" as="geometry"/>
                </mxCell>
                <mxCell id="2e49270ec7c68f3f-53" value="row 1" style="shape=partialRectangle;top=0;left=0;right=0;bottom=0;html=1;align=left;verticalAlign=top;fillColor=none;spacingLeft=60;spacingRight=4;whiteSpace=wrap;overflow=hidden;rotatable=0;points=[[0,0.5],[1,0.5]];portConstraint=eastwest;dropTarget=0;" parent="2e49270ec7c68f3f-48" vertex="1">
                    <mxGeometry y="86" width="160" height="26" as="geometry"/>
                </mxCell>
                <mxCell id="2e49270ec7c68f3f-54" value="" style="shape=partialRectangle;top=0;left=0;bottom=0;html=1;fillColor=none;align=left;verticalAlign=top;spacingLeft=4;spacingRight=4;whiteSpace=wrap;overflow=hidden;rotatable=0;points=[];portConstraint=eastwest;part=1;" parent="2e49270ec7c68f3f-53" vertex="1" connectable="0">
                    <mxGeometry width="56" height="26" as="geometry"/>
                </mxCell>
                <mxCell id="2e49270ec7c68f3f-56" value="" style="edgeStyle=orthogonalEdgeStyle;html=1;endArrow=ERzeroToMany;endFill=1;startArrow=none;labelBackgroundColor=none;fontFamily=Verdana;fontSize=14;entryX=0;entryY=0.5;exitX=0;exitY=0.5;" parent="1" edge="1">
                    <mxGeometry width="100" height="100" relative="1" as="geometry">
                        <mxPoint x="170" y="482" as="sourcePoint"/>
                        <mxPoint x="260" y="575" as="targetPoint"/>
                        <Array as="points">
                            <mxPoint x="250" y="481"/>
                        </Array>
                    </mxGeometry>
                </mxCell>
                <mxCell id="2e49270ec7c68f3f-58" value="" style="edgeStyle=orthogonalEdgeStyle;html=1;endArrow=ERzeroToMany;startArrow=ERmandOne;labelBackgroundColor=none;fontFamily=Verdana;fontSize=14;entryX=0;entryY=0.308;entryPerimeter=0;exitX=0;exitY=0.5;" parent="1" source="2e49270ec7c68f3f-31" target="2e49270ec7c68f3f-15" edge="1">
                    <mxGeometry width="100" height="100" relative="1" as="geometry">
                        <mxPoint x="470" y="420" as="sourcePoint"/>
                        <mxPoint x="570" y="320" as="targetPoint"/>
                        <Array as="points">
                            <mxPoint x="540" y="450"/>
                            <mxPoint x="540" y="270"/>
                        </Array>
                    </mxGeometry>
                </mxCell>
                <mxCell id="2e49270ec7c68f3f-60" value="" style="edgeStyle=entityRelationEdgeStyle;html=1;endArrow=ERzeroToOne;startArrow=ERmandOne;labelBackgroundColor=none;fontFamily=Verdana;fontSize=14;exitX=1;exitY=0.5;entryX=0;entryY=0.5;" parent="1" source="2e49270ec7c68f3f-49" target="2e49270ec7c68f3f-35" edge="1">
                    <mxGeometry width="100" height="100" relative="1" as="geometry">
                        <mxPoint x="600" y="720" as="sourcePoint"/>
                        <mxPoint x="700" y="620" as="targetPoint"/>
                    </mxGeometry>
                </mxCell>
                <mxCell id="2e49270ec7c68f3f-63" value="" style="edgeStyle=entityRelationEdgeStyle;html=1;endArrow=ERzeroToMany;startArrow=ERzeroToOne;labelBackgroundColor=none;fontFamily=Verdana;fontSize=14;entryX=0;entryY=0.5;exitX=1;exitY=0.5;" parent="1" source="2e49270ec7c68f3f-31" target="2e49270ec7c68f3f-42" edge="1">
                    <mxGeometry width="100" height="100" relative="1" as="geometry">
                        <mxPoint x="850" y="600" as="sourcePoint"/>
                        <mxPoint x="950" y="500" as="targetPoint"/>
                    </mxGeometry>
                </mxCell>
                <mxCell id="2e49270ec7c68f3f-64" value="Table" style="swimlane;html=1;fontStyle=0;childLayout=stackLayout;horizontal=1;startSize=26;fillColor=#e0e0e0;horizontalStack=0;resizeParent=1;resizeLast=0;collapsible=1;marginBottom=0;swimlaneFillColor=#ffffff;align=center;rounded=0;shadow=0;comic=0;labelBackgroundColor=none;strokeWidth=1;fontFamily=Verdana;fontSize=14" parent="1" vertex="1">
                    <mxGeometry x="890" y="416" width="160" height="112" as="geometry"/>
                </mxCell>
                <mxCell id="2e49270ec7c68f3f-65" value="row 1" style="shape=partialRectangle;top=0;left=0;right=0;bottom=0;html=1;align=left;verticalAlign=middle;fillColor=none;spacingLeft=60;spacingRight=4;whiteSpace=wrap;overflow=hidden;rotatable=0;points=[[0,0.5],[1,0.5]];portConstraint=eastwest;dropTarget=0;fontStyle=5;" parent="2e49270ec7c68f3f-64" vertex="1">
                    <mxGeometry y="26" width="160" height="30" as="geometry"/>
                </mxCell>
                <mxCell id="2e49270ec7c68f3f-66" value="PK,FK1" style="shape=partialRectangle;fontStyle=1;top=0;left=0;bottom=0;html=1;fillColor=none;align=left;verticalAlign=middle;spacingLeft=4;spacingRight=4;whiteSpace=wrap;overflow=hidden;rotatable=0;points=[];portConstraint=eastwest;part=1;" parent="2e49270ec7c68f3f-65" vertex="1" connectable="0">
                    <mxGeometry width="56" height="30" as="geometry"/>
                </mxCell>
                <mxCell id="2e49270ec7c68f3f-67" value="row 2" style="shape=partialRectangle;top=0;left=0;right=0;bottom=1;html=1;align=left;verticalAlign=middle;fillColor=none;spacingLeft=60;spacingRight=4;whiteSpace=wrap;overflow=hidden;rotatable=0;points=[[0,0.5],[1,0.5]];portConstraint=eastwest;dropTarget=0;fontStyle=5;" parent="2e49270ec7c68f3f-64" vertex="1">
                    <mxGeometry y="56" width="160" height="30" as="geometry"/>
                </mxCell>
                <mxCell id="2e49270ec7c68f3f-68" value="PK,FK2" style="shape=partialRectangle;fontStyle=1;top=0;left=0;bottom=0;html=1;fillColor=none;align=left;verticalAlign=middle;spacingLeft=4;spacingRight=4;whiteSpace=wrap;overflow=hidden;rotatable=0;points=[];portConstraint=eastwest;part=1;" parent="2e49270ec7c68f3f-67" vertex="1" connectable="0">
                    <mxGeometry width="56" height="30" as="geometry"/>
                </mxCell>
                <mxCell id="2e49270ec7c68f3f-69" value="row 1" style="shape=partialRectangle;top=0;left=0;right=0;bottom=0;html=1;align=left;verticalAlign=top;fillColor=none;spacingLeft=60;spacingRight=4;whiteSpace=wrap;overflow=hidden;rotatable=0;points=[[0,0.5],[1,0.5]];portConstraint=eastwest;dropTarget=0;" parent="2e49270ec7c68f3f-64" vertex="1">
                    <mxGeometry y="86" width="160" height="26" as="geometry"/>
                </mxCell>
                <mxCell id="2e49270ec7c68f3f-70" value="" style="shape=partialRectangle;top=0;left=0;bottom=0;html=1;fillColor=none;align=left;verticalAlign=top;spacingLeft=4;spacingRight=4;whiteSpace=wrap;overflow=hidden;rotatable=0;points=[];portConstraint=eastwest;part=1;" parent="2e49270ec7c68f3f-69" vertex="1" connectable="0">
                    <mxGeometry width="56" height="26" as="geometry"/>
                </mxCell>
                <mxCell id="2e49270ec7c68f3f-71" value="Table" style="swimlane;html=1;fontStyle=0;childLayout=stackLayout;horizontal=1;startSize=26;fillColor=#e0e0e0;horizontalStack=0;resizeParent=1;resizeLast=0;collapsible=1;marginBottom=0;swimlaneFillColor=#ffffff;align=center;rounded=0;shadow=0;comic=0;labelBackgroundColor=none;strokeWidth=1;fontFamily=Verdana;fontSize=14" parent="1" vertex="1">
                    <mxGeometry x="890" y="550" width="160" height="112" as="geometry"/>
                </mxCell>
                <mxCell id="2e49270ec7c68f3f-72" value="row 1" style="shape=partialRectangle;top=0;left=0;right=0;bottom=0;html=1;align=left;verticalAlign=middle;fillColor=none;spacingLeft=60;spacingRight=4;whiteSpace=wrap;overflow=hidden;rotatable=0;points=[[0,0.5],[1,0.5]];portConstraint=eastwest;dropTarget=0;fontStyle=5;" parent="2e49270ec7c68f3f-71" vertex="1">
                    <mxGeometry y="26" width="160" height="30" as="geometry"/>
                </mxCell>
                <mxCell id="2e49270ec7c68f3f-73" value="PK,FK1" style="shape=partialRectangle;fontStyle=1;top=0;left=0;bottom=0;html=1;fillColor=none;align=left;verticalAlign=middle;spacingLeft=4;spacingRight=4;whiteSpace=wrap;overflow=hidden;rotatable=0;points=[];portConstraint=eastwest;part=1;" parent="2e49270ec7c68f3f-72" vertex="1" connectable="0">
                    <mxGeometry width="56" height="30" as="geometry"/>
                </mxCell>
                <mxCell id="2e49270ec7c68f3f-74" value="row 2" style="shape=partialRectangle;top=0;left=0;right=0;bottom=1;html=1;align=left;verticalAlign=middle;fillColor=none;spacingLeft=60;spacingRight=4;whiteSpace=wrap;overflow=hidden;rotatable=0;points=[[0,0.5],[1,0.5]];portConstraint=eastwest;dropTarget=0;fontStyle=5;" parent="2e49270ec7c68f3f-71" vertex="1">
                    <mxGeometry y="56" width="160" height="30" as="geometry"/>
                </mxCell>
                <mxCell id="2e49270ec7c68f3f-75" value="PK,FK2" style="shape=partialRectangle;fontStyle=1;top=0;left=0;bottom=0;html=1;fillColor=none;align=left;verticalAlign=middle;spacingLeft=4;spacingRight=4;whiteSpace=wrap;overflow=hidden;rotatable=0;points=[];portConstraint=eastwest;part=1;" parent="2e49270ec7c68f3f-74" vertex="1" connectable="0">
                    <mxGeometry width="56" height="30" as="geometry"/>
                </mxCell>
                <mxCell id="2e49270ec7c68f3f-76" value="row 1" style="shape=partialRectangle;top=0;left=0;right=0;bottom=0;html=1;align=left;verticalAlign=top;fillColor=none;spacingLeft=60;spacingRight=4;whiteSpace=wrap;overflow=hidden;rotatable=0;points=[[0,0.5],[1,0.5]];portConstraint=eastwest;dropTarget=0;" parent="2e49270ec7c68f3f-71" vertex="1">
                    <mxGeometry y="86" width="160" height="26" as="geometry"/>
                </mxCell>
                <mxCell id="2e49270ec7c68f3f-77" value="" style="shape=partialRectangle;top=0;left=0;bottom=0;html=1;fillColor=none;align=left;verticalAlign=top;spacingLeft=4;spacingRight=4;whiteSpace=wrap;overflow=hidden;rotatable=0;points=[];portConstraint=eastwest;part=1;" parent="2e49270ec7c68f3f-76" vertex="1" connectable="0">
                    <mxGeometry width="56" height="26" as="geometry"/>
                </mxCell>
                <mxCell id="2e49270ec7c68f3f-78" value="" style="edgeStyle=entityRelationEdgeStyle;html=1;endArrow=ERzeroToMany;startArrow=ERzeroToOne;labelBackgroundColor=none;fontFamily=Verdana;fontSize=14;entryX=0;entryY=0.5;exitX=1;exitY=0.5;" parent="1" source="2e49270ec7c68f3f-33" target="2e49270ec7c68f3f-65" edge="1">
                    <mxGeometry width="100" height="100" relative="1" as="geometry">
                        <mxPoint x="749.7647058823532" y="459.52941176470586" as="sourcePoint"/>
                        <mxPoint x="900.3529411764707" y="325.41176470588243" as="targetPoint"/>
                    </mxGeometry>
                </mxCell>
                <mxCell id="2e49270ec7c68f3f-79" value="" style="edgeStyle=entityRelationEdgeStyle;html=1;endArrow=ERzeroToMany;startArrow=ERzeroToOne;labelBackgroundColor=none;fontFamily=Verdana;fontSize=14;entryX=0;entryY=0.5;exitX=1;exitY=0.5;" parent="1" source="2e49270ec7c68f3f-37" target="2e49270ec7c68f3f-74" edge="1">
                    <mxGeometry width="100" height="100" relative="1" as="geometry">
                        <mxPoint x="759.7647058823532" y="469.52941176470586" as="sourcePoint"/>
                        <mxPoint x="910.3529411764707" y="335.41176470588243" as="targetPoint"/>
                    </mxGeometry>
                </mxCell>
                <mxCell id="2e49270ec7c68f3f-92" value="" style="edgeStyle=orthogonalEdgeStyle;html=1;endArrow=ERzeroToOne;endFill=1;labelBackgroundColor=none;fontFamily=Verdana;fontSize=14;entryX=0;entryY=0.5;exitX=1;exitY=0.5;" parent="1" target="2e49270ec7c68f3f-53" edge="1">
                    <mxGeometry width="100" height="100" relative="1" as="geometry">
                        <mxPoint x="190" y="479" as="sourcePoint"/>
                        <mxPoint x="300.3529411764707" y="191.2941176470589" as="targetPoint"/>
                        <Array as="points">
                            <mxPoint x="220" y="479"/>
                            <mxPoint x="220" y="679"/>
                        </Array>
                    </mxGeometry>
                </mxCell>
                <mxCell id="-4D_usvx1TPkDCtR53n8-1" style="edgeStyle=orthogonalEdgeStyle;rounded=1;orthogonalLoop=1;jettySize=auto;html=1;exitX=1;exitY=0.5;exitDx=0;exitDy=0;startArrow=ERzeroToMany;startFill=0;endArrow=ERzeroToMany;endFill=0;" parent="1" source="2e49270ec7c68f3f-2" target="2e49270ec7c68f3f-11" edge="1">
                    <mxGeometry relative="1" as="geometry"/>
                </mxCell>
                <mxCell id="-4D_usvx1TPkDCtR53n8-15" style="edgeStyle=orthogonalEdgeStyle;rounded=1;orthogonalLoop=1;jettySize=auto;html=1;exitX=1;exitY=0.5;exitDx=0;exitDy=0;startArrow=ERzeroToMany;startFill=0;endArrow=ERzeroToMany;endFill=0;" parent="1" edge="1">
                    <mxGeometry relative="1" as="geometry">
                        <mxPoint x="520" y="460" as="targetPoint"/>
                        <mxPoint x="560" y="511" as="sourcePoint"/>
                    </mxGeometry>
                </mxCell>
                <mxCell id="-4D_usvx1TPkDCtR53n8-24" value="" style="edgeStyle=orthogonalEdgeStyle;html=1;endArrow=none;endFill=1;startArrow=ERzeroToMany;labelBackgroundColor=none;fontFamily=Verdana;fontSize=14;entryX=0;entryY=0.5;exitX=0;exitY=0.5;" parent="1" source="2e49270ec7c68f3f-49" edge="1">
                    <mxGeometry width="100" height="100" relative="1" as="geometry">
                        <mxPoint x="290" y="621" as="sourcePoint"/>
                        <mxPoint x="170" y="482" as="targetPoint"/>
                        <Array as="points">
                            <mxPoint x="250" y="621"/>
                        </Array>
                    </mxGeometry>
                </mxCell>
            </root>
        </mxGraphModel>
    </diagram>
</mxfile>